<?xml version="1.0" encoding="utf-8"?>
<!-- Generator: Adobe Illustrator 22.0.0, SVG Export Plug-In . SVG Version: 6.00 Build 0)  -->
<svg version="1.1" id="Icons" xmlns="http://www.w3.org/2000/svg" xmlns:xlink="http://www.w3.org/1999/xlink" x="0px" y="0px"
	 viewBox="0 0 512 512" style="enable-background:new 0 0 512 512;" xml:space="preserve">
<style type="text/css">
	.st0{fill:#CCCCCC;}
</style>
<path class="st0" d="M131.5,178.9c-3.8,0.1-7-3-7-6.8c-0.1-3.8,3-7,6.8-7c33.9-0.4,67.8-3.2,101.4-8.6c0.6-0.1,1.2-0.2,1.8-0.1
	c8.4,0.4,16.6,3,23.7,7.5c3.1,2.2,3.8,6.6,1.5,9.7c-1.3,1.8-3.4,2.8-5.6,2.9c-1.6,0-3.2-0.6-4.5-1.6c-4.7-2.7-9.9-4.2-15.3-4.5
	c-34,5.3-68.3,8.2-102.7,8.7H131.5z"/>
<path class="st0" d="M384.6,343.5c-5.9,0-11.7-1.9-16.4-5.3l-1.5-1c-0.2-0.1-0.5-0.4-0.8-0.7l-81.4-58.7c-3.2-2.2-4-6.5-1.8-9.6
	c2.2-3.2,6.5-4,9.6-1.8c0.1,0.1,0.2,0.1,0.2,0.2l5.5,3.9l76.2,55c0.2,0.2,0.4,0.3,0.7,0.5l1.3,0.9c6.2,4.5,14.9,3.3,19.7-2.7
	c2.9-3.6,3.8-8.4,2.5-12.8c-0.8-2.7-2.4-5.2-4.6-7l-108.9-88.7c-41.7,22.1-71.3,10.8-85.4,1.7c-7.4-4.8-9.5-14.7-4.7-22
	c1.5-2.3,3.6-4.2,6-5.4l62.4-33.1c8-4.2,17.4-5,26.1-2.3l36.9,12c10.9,3.6,22.6,3.1,33.2-1.2l16.1-6.6c3.5-1.5,7.6,0.2,9,3.8
	c1.5,3.5-0.2,7.6-3.8,9l-16.1,6.6c-13.6,5.6-28.8,6.2-42.8,1.5l-36.9-12c-5.1-1.6-10.6-1.1-15.4,1.4l-62.4,33.1
	c-0.7,0.3-1.2,1-1.2,1.8c-0.1,0.7,0.3,1.4,0.9,1.8c14.5,9.3,39.5,16.1,75.2-4.4c2.5-1.4,5.6-1.2,7.8,0.6l112.5,91.7
	c4.4,3.6,7.6,8.4,9.2,13.8c2.5,8.7,0.7,18.1-4.8,25.2C401.4,339.5,393.2,343.5,384.6,343.5L384.6,343.5z"/>
<path class="st0" d="M355.9,375.6c-5.9,0-11.6-1.8-16.4-5.2l-74.8-53.1c-3.1-2.3-3.7-6.6-1.5-9.7c2.2-3,6.4-3.7,9.5-1.6l74.8,53.1
	c6.7,4.4,15.7,2.5,20.1-4.2c4.1-6.3,2.7-14.8-3.2-19.4l-74.5-53.7c-3-2.4-3.4-6.8-1-9.7c2.2-2.7,6.1-3.4,9.1-1.5l74.6,53.7
	c12.7,9.2,15.5,26.9,6.3,39.6C373.5,371.2,365,375.6,355.9,375.6L355.9,375.6z"/>
<path class="st0" d="M323.6,403.3c-5.6,0-11-1.7-15.6-4.9L241,352c-3.1-2.2-3.9-6.5-1.8-9.6c2.2-3.1,6.5-3.9,9.6-1.8l0,0l67,46.4
	c6.2,4.3,14.7,2.7,19-3.5c0,0,0,0,0,0c4.2-6.1,2.7-14.5-3.3-18.9l-66.7-47.3c-3.2-2.2-4-6.5-1.8-9.6c2.2-3.2,6.5-4,9.6-1.8
	c0.1,0,0.1,0.1,0.2,0.1l66.7,47.3c12.2,8.7,15.2,25.6,6.7,38c-4.1,6-10.5,10.1-17.6,11.4C327,403.2,325.3,403.3,323.6,403.3
	L323.6,403.3z"/>
<path class="st0" d="M284.1,426.1c-4.8,0-9.6-1.3-13.8-3.8l-37.2-21.4c-3.3-1.9-4.4-6.2-2.5-9.5c1.9-3.3,6.1-4.4,9.4-2.5l37.2,21.4
	c6.5,3.7,14.8,1.5,18.7-5c3.7-6.2,1.9-14.1-4.1-18.1l-47.5-32.9c-3.1-2.2-3.9-6.5-1.7-9.6c2.2-3.1,6.5-3.9,9.6-1.7l0,0l47.5,32.9
	c12.5,8.7,15.6,25.8,7,38.3C301.6,421.6,293.1,426.1,284.1,426.1L284.1,426.1z"/>
<path class="st0" d="M205.8,421.9c-15.4,0-27.8-12.4-27.9-27.8c0-8,3.4-15.7,9.5-21l18.5-16.2c11.5-10.1,29.1-9,39.3,2.6
	c0,0,0,0,0,0c10.1,11.6,9,29.1-2.6,39.3c0,0,0,0,0,0l-18.5,16.2C219,419.5,212.5,422,205.8,421.9z M224.2,363.9
	c-3.4,0-6.7,1.2-9.2,3.5l-18.5,16.2c-5.8,5.1-6.4,13.9-1.3,19.7c5.1,5.8,13.9,6.4,19.7,1.3l18.5-16.2c5.8-5.1,6.4-13.9,1.3-19.7
	C232,365.7,228.2,363.9,224.2,363.9L224.2,363.9z"/>
<path class="st0" d="M163.9,403.1c-0.6,0-1.2,0-1.8-0.1c-7.4-0.5-14.3-3.8-19.1-9.4c-10.3-11.5-9.2-29.2,2.3-39.4
	c0,0,0.1-0.1,0.1-0.1l30.9-27.1c11.5-10.1,29.1-9,39.3,2.6c0,0,0,0,0,0l-5,4.8l5.2-4.6c10.1,11.5,9,29.1-2.5,39.3c0,0,0,0,0,0
	l-30.9,27.1C177.1,400.6,170.6,403.1,163.9,403.1z M194.5,333.9c-3.4,0-6.7,1.2-9.2,3.5l-30.9,27.1c-5.8,5.3-6.3,14.2-1,20.1
	c2.5,2.7,5.9,4.4,9.5,4.6c3.7,0.3,7.4-1,10.1-3.5l30.9-27.1c5.8-5.1,6.4-13.9,1.3-19.7c0,0,0,0,0,0l-0.2-0.2
	c-2.4-2.8-5.9-4.5-9.6-4.7C195.1,334,194.8,333.9,194.5,333.9L194.5,333.9z"/>
<path class="st0" d="M129,377.7c-0.6,0-1.2,0-1.8-0.1c-7.4-0.5-14.3-3.8-19.1-9.4l-0.8-0.9c-10.1-11.6-9-29.1,2.6-39.3l35.8-31.4
	c11.5-10.1,29.1-9,39.3,2.5c0,0,0,0,0,0l0.8,0.9c10.1,11.5,9,29.1-2.6,39.3l-35.8,31.4C142.2,375.2,135.7,377.7,129,377.7z
	 M163.9,303.6c-3.4,0-6.7,1.2-9.2,3.5l-35.8,31.4c-5.8,5.1-6.4,13.9-1.3,19.8l0.8,0.9c5.1,5.8,13.9,6.4,19.7,1.3l35.8-31.4
	c5.8-5.1,6.4-13.9,1.3-19.7c0,0,0,0,0,0l-0.8-0.9c-2.4-2.8-5.9-4.5-9.6-4.7C164.5,303.6,164.2,303.6,163.9,303.6L163.9,303.6z"/>
<path class="st0" d="M98.9,346.9c-0.6,0-1.2,0-1.8-0.1c-15.4-1-27.2-14.3-26.2-29.7c0.5-7.4,3.9-14.3,9.4-19.2l22.4-19.7
	c11.5-10.1,29.1-9,39.3,2.5c0,0,0,0,0,0l0.2,0.3c10.1,11.5,9,29.1-2.5,39.3c0,0,0,0,0,0L117.2,340
	C112.2,344.5,105.6,346.9,98.9,346.9z M121,285.1c-3.4,0-6.7,1.2-9.2,3.5l-22.4,19.7c-5.8,5.1-6.4,13.9-1.3,19.7c0,0,0,0,0,0
	c5,5.9,13.9,6.7,19.9,1.7c0,0,0.1-0.1,0.1-0.1l22.4-19.7c5.8-5.1,6.4-13.9,1.3-19.7c0,0,0,0,0,0l-0.2-0.3c-2.4-2.8-5.9-4.5-9.6-4.7
	C121.6,285.1,121.3,285.1,121,285.1L121,285.1z"/>
<path class="st0" d="M86.3,308.7c-1.5,0-3-0.5-4.2-1.4l-23.6-18c-3-2.3-3.6-6.7-1.3-9.7c2.3-3,6.7-3.6,9.7-1.3l23.6,18
	c3.1,2.3,3.7,6.6,1.4,9.7C90.6,307.7,88.6,308.7,86.3,308.7L86.3,308.7z"/>
<path class="st0" d="M404.9,316.3c-3.8,0-6.9-3.1-6.9-6.9c0-1.8,0.7-3.6,2-4.9l38.8-38.8c2.7-2.7,7.1-2.6,9.8,0.2
	c2.6,2.7,2.6,6.9,0,9.6l-38.8,38.8C408.5,315.6,406.7,316.3,404.9,316.3L404.9,316.3z"/>
<path class="st0" d="M457.8,302c-2.4,0-4.6-1.2-5.9-3.3l-84.5-137.4c-1.8-3-1.1-6.9,1.7-9.1l83.7-64.8c3-2.3,7.4-1.8,9.7,1.2
	c0.6,0.8,1,1.7,1.3,2.7l41.1,179.5c0.7,3-0.7,6.1-3.4,7.6l-40.3,22.7C460.2,301.7,459,302,457.8,302L457.8,302z M382.5,159.3
	l77.7,126.4l30-16.9l-37.6-163.9L382.5,159.3z"/>
<path class="st0" d="M54.2,304.4c-1.2,0-2.4-0.3-3.4-0.9l-40.3-22.6c-2.7-1.5-4.1-4.6-3.4-7.6L48.2,93.8c0.9-3.7,4.6-6.1,8.3-5.2
	c1,0.2,1.9,0.7,2.7,1.3l83.7,64.8c2.8,2.2,3.5,6.1,1.7,9.1L60.1,301.2C58.8,303.2,56.6,304.4,54.2,304.4L54.2,304.4z M21.7,271.4
	l30,16.9l77.7-126.5l-70.2-54.4L21.7,271.4z"/>
</svg>
