<?xml version="1.0" encoding="utf-8"?>
<!-- Generator: Adobe Illustrator 22.0.0, SVG Export Plug-In . SVG Version: 6.00 Build 0)  -->
<svg version="1.1" id="Layer_1" xmlns="http://www.w3.org/2000/svg" xmlns:xlink="http://www.w3.org/1999/xlink" x="0px" y="0px"
	 viewBox="0 0 512 512" style="enable-background:new 0 0 512 512;" xml:space="preserve">
<style type="text/css">
	.st0{fill:#CCCCCC;}
</style>
<path class="st0" d="M462.3,232.5c-18.7-23-43.6-40.2-71.8-49.3l10.5-10.5c6.5-6.5,8.8-16.1,5.9-24.8c-5.1-15.3-21.6-23.5-36.9-18.4
	c-4.3,1.4-8.2,3.8-11.4,7l-4.1,4.1l-4.1-4.1c-11.4-11.4-29.8-11.4-41.2,0c-3.2,3.2-5.6,7.1-7,11.4c-2.9,8.7-0.7,18.4,5.9,24.8
	l6.2,6.2c-4.1,0.8-8.2,1.8-12.2,3c-0.3,0.1-0.6,0.2-0.9,0.3c-20.3-36.6-54.8-63.2-95.3-73.6l24.7-31.8c2.2-2.8,2.3-6.8,0.1-9.7
	l-24-32c-1.5-2-3.9-3.2-6.4-3.2h-64c-2.5,0-4.9,1.2-6.4,3.2l-24,32c-2.2,2.9-2.1,6.9,0.1,9.7l24.7,31.8C63.1,125.9,16,186.5,16,256
	c0,83.8,68.2,152,152,152c14.6,0,29.1-2.1,43.1-6.2c26.7,48.4,77.7,78.3,132.9,78.2c83.8,0,152-68.2,152-152
	C496,293.3,484.1,259.6,462.3,232.5z M317.1,153c2.3-6.9,9.7-10.6,16.6-8.3c1.9,0.6,3.7,1.7,5.1,3.2l9.8,9.8c3.1,3.1,8.2,3.1,11.3,0
	l9.8-9.8c5.1-5.1,13.5-5.1,18.6,0c1.4,1.4,2.5,3.2,3.2,5.1c1,3,0.2,6.3-2,8.5l-35.2,35.2l-35.2-35.2
	C316.9,159.2,316.1,156,317.1,153z M320,256c0-9.6-0.9-19.1-2.7-28.5c55.5-14.8,112.5,18.3,127.2,73.8s-18.3,112.5-73.8,127.2
	c-45,12-92.5-7.5-116.2-47.6C295.5,352.6,320,305.9,320,256z M328,192.9L343,208c-10,0.1-19.9,1.4-29.6,3.9
	c-1.6-5.1-3.4-10.2-5.5-15.1C314.6,195,321.2,193.7,328,192.9L328,192.9z M272,256c0,28.3-11.6,55.4-31.9,75c0-1-0.1-2-0.1-3
	c-0.1-28.3,11.5-55.4,32-75C272,254,272,255,272,256z M210,351.2c-1.3-7.7-2-15.4-2-23.2c0-43.8,21.1-84.9,56.6-110.4
	c2.1,5.3,3.8,10.7,5,16.3c-28.9,22.7-45.7,57.4-45.6,94.2c0,5,0.3,10,1,15C220.2,346.1,215.2,348.9,210,351.2z M192,328
	c0,9.6,0.9,19.1,2.7,28.5c-55.5,14.8-112.5-18.3-127.3-73.8s18.3-112.5,73.8-127.3c45-12,92.5,7.5,116.2,47.5
	C216.4,231.4,192,278.1,192,328z M138.2,80l7.4,22.2L128.4,80H138.2z M207.6,80l-17.3,22.2l7.4-22.2H207.6z M180.9,80L168,118.7
	L155.1,80H180.9z M160,64l8-10.7l8,10.7H160z M208,64h-12l-12-16h12L208,64z M140,48h12l-12,16h-12L140,48z M32,256
	c0-64.8,45.7-120.6,109.2-133.4l11.2,14.4c-65.7,8.6-112,68.8-103.4,134.6s68.8,112,134.6,103.4c65.7-8.6,112-68.8,103.4-134.6
	c-7.1-53.9-49.5-96.4-103.4-103.4l11.2-14.4C258.3,135.4,304,191.2,304,256c0,75-61,136-136,136S32,331,32,256z M344,464
	c-48.5,0.1-93.3-25.7-117.6-67.7c4.9-2.1,9.8-4.4,14.5-7c33.9,57,107.5,75.7,164.5,41.8s75.7-107.5,41.8-164.5
	c-18-30.3-48.4-51.1-83.1-57l13.5-13.5C437.8,211.5,480,265.8,480,328C480,403,419,464,344,464z"/>
</svg>
