<?xml version="1.0" encoding="utf-8"?>
<!-- Generator: Adobe Illustrator 22.0.0, SVG Export Plug-In . SVG Version: 6.00 Build 0)  -->
<svg version="1.1" id="Capa_1" xmlns="http://www.w3.org/2000/svg" xmlns:xlink="http://www.w3.org/1999/xlink" x="0px" y="0px"
	 viewBox="0 0 512 512" style="enable-background:new 0 0 512 512;" xml:space="preserve">
<style type="text/css">
	.st0{fill:#CCCCCC;}
</style>
<g>
	<path class="st0" d="M115.4,217.5c4.4-7.3,6.7-15.7,6.7-24.4c0-26.5-21.5-48-48-48c-26.5,0-48,21.5-48,48c0,8.8,2.4,17.3,6.8,24.6
		C11.6,226.4,0,242.3,0,263.2V291c0,4.1,3.4,7.5,7.5,7.5s7.5-3.4,7.5-7.5v-27.8c0-17.1,10.8-28.8,32.2-34.5c2.6-0.7,4.6-2.7,5.3-5.3
		c0.7-2.6,0-5.3-1.9-7.2c-6.1-6.2-9.5-14.4-9.5-23.1c0-18.2,14.8-32.9,32.9-32.9s32.9,14.8,32.9,32.9c0,8.6-3.3,16.8-9.4,23
		c-1.9,1.9-2.6,4.7-1.9,7.3c0.7,2.6,2.7,4.6,5.3,5.3c21.7,5.7,32.6,17.4,32.6,34.6v86.5c0,4.8-3.9,8.7-8.7,8.7
		c-4.8,0-8.7-3.9-8.7-8.7v-81.3c0-4.1-3.4-7.5-7.5-7.5c-4.2,0-7.5,3.4-7.5,7.5V447c0,5.3-4.4,9.7-9.7,9.7c-5.3,0-9.7-4.4-9.7-9.7
		v-95.9c0-4.1-3.4-7.5-7.5-7.5c-4.2,0-7.5,3.4-7.5,7.5V447c0,5.3-4.4,9.7-9.7,9.7c-5.3,0-9.7-4.4-9.7-9.7V268.4
		c0-4.1-3.4-7.5-7.5-7.5s-7.5,3.4-7.5,7.5v81.3c0,4.8-3.9,8.7-8.7,8.7s-8.7-3.9-8.7-8.7V321c0-4.1-3.4-7.5-7.5-7.5S0,316.9,0,321
		v28.7c0,13.1,10.6,23.7,23.7,23.7c3.1,0,6-0.6,8.7-1.7V447c0,13.6,11.1,24.7,24.7,24.7c6.7,0,12.8-2.7,17.2-7
		c4.5,4.3,10.5,7,17.2,7c13.6,0,24.7-11.1,24.7-24.7v-75.2c2.7,1.1,5.6,1.7,8.7,1.7c13.1,0,23.7-10.6,23.7-23.7v-86.5
		C148.8,242.2,137,226.2,115.4,217.5L115.4,217.5z"/>
	<path class="st0" d="M291.1,119.8c5-8.2,7.8-17.6,7.8-27.4c0-28.8-23.4-52.2-52.2-52.2c-28.8,0-52.2,23.4-52.2,52.2
		c0,9.9,2.7,19.4,7.9,27.6c-23.8,9.5-36.7,26.9-36.7,49.9v131.7c0,14,11.4,25.4,25.4,25.4c3.7,0,7.2-0.8,10.4-2.2v120.4
		c0,14.6,11.9,26.5,26.5,26.5c7.5,0,14.2-3.1,19-8.1c4.8,5,11.6,8.1,19,8.1c14.6,0,26.5-11.9,26.5-26.5v-38c0-4.1-3.4-7.5-7.5-7.5
		s-7.5,3.4-7.5,7.5v38c0,6.3-5.2,11.5-11.5,11.5s-11.5-5.2-11.5-11.5V303.2c0-4.1-3.4-7.5-7.5-7.5s-7.5,3.4-7.5,7.5v142.1
		c0,6.3-5.2,11.5-11.5,11.5s-11.5-5.2-11.5-11.5V175.7c0-4.1-3.4-7.5-7.5-7.5s-7.5,3.4-7.5,7.5v125.9c0,5.7-4.7,10.4-10.4,10.4
		s-10.4-4.7-10.4-10.4V170c0-19.3,12.2-32.4,36.2-38.9c2.6-0.7,4.6-2.7,5.3-5.3c0.7-2.6,0-5.3-1.9-7.2c-6.9-7-10.7-16.3-10.7-26.1
		c0-20.5,16.7-37.2,37.2-37.2s37.2,16.7,37.2,37.2c0,9.8-3.8,19-10.6,26c-1.9,1.9-2.6,4.7-1.9,7.2c0.7,2.6,2.7,4.6,5.3,5.3
		c24.3,6.4,36.6,19.6,36.6,39v131.7c0,5.7-4.7,10.4-10.4,10.4s-10.4-4.7-10.4-10.4V175.7c0-4.1-3.4-7.5-7.5-7.5s-7.5,3.4-7.5,7.5
		v201.5c0,4.1,3.4,7.5,7.5,7.5s7.5-3.4,7.5-7.5v-52.4c3.2,1.4,6.7,2.2,10.4,2.2c14,0,25.4-11.4,25.4-25.4V170
		C328.4,146.8,315.3,129.3,291.1,119.8L291.1,119.8z"/>
	<path class="st0" d="M474.7,164.9c5-8.2,7.8-17.6,7.8-27.4c0-28.8-23.4-52.2-52.2-52.2s-52.2,23.4-52.2,52.2
		c0,9.9,2.7,19.4,7.9,27.6c-23.8,9.5-36.7,26.9-36.7,49.9v27.7c0,4.1,3.4,7.5,7.5,7.5s7.5-3.4,7.5-7.5v-27.7
		c0-19.3,12.2-32.4,36.2-38.9c2.6-0.7,4.6-2.7,5.3-5.3c0.7-2.6,0-5.3-1.9-7.2c-6.9-7-10.7-16.3-10.7-26.1
		c0-20.5,16.7-37.2,37.2-37.2c20.5,0,37.2,16.7,37.2,37.2c0,9.8-3.8,19-10.6,26c-1.9,1.9-2.6,4.7-1.9,7.3s2.7,4.6,5.3,5.3
		c24.3,6.4,36.6,19.6,36.6,39v59.5c0,5.7-4.7,10.4-10.4,10.4s-10.4-4.7-10.4-10.4v-53.8c0-4.1-3.4-7.5-7.5-7.5s-7.5,3.4-7.5,7.5
		v224.4c0,6.3-5.2,11.5-11.5,11.5c-6.3,0-11.5-5.2-11.5-11.5v-106c0-4.1-3.4-7.5-7.5-7.5s-7.5,3.4-7.5,7.5v106
		c0,6.3-5.2,11.5-11.5,11.5c-6.3,0-11.5-5.2-11.5-11.5V220.8c0-4.1-3.4-7.5-7.5-7.5s-7.5,3.4-7.5,7.5v89.8c0,5.7-4.7,10.4-10.4,10.4
		s-10.4-4.7-10.4-10.4v-37.9c0-4.1-3.4-7.5-7.5-7.5s-7.5,3.4-7.5,7.5v37.9c0,14,11.4,25.4,25.4,25.4c3.7,0,7.2-0.8,10.4-2.2v111.4
		c0,14.6,11.9,26.5,26.5,26.5c7.5,0,14.2-3.1,19-8.1c4.8,5,11.6,8.1,19,8.1c14.6,0,26.5-11.9,26.5-26.5V297.8
		c3.2,1.4,6.7,2.2,10.4,2.2c0.1,0,0.2,0,0.3,0v164.2c0,4.1,3.4,7.5,7.5,7.5s7.5-3.4,7.5-7.5V294.9c6.1-4.6,10.1-12,10.1-20.3v-59.5
		C512,191.9,498.9,174.4,474.7,164.9L474.7,164.9z"/>
</g>
</svg>
