<?xml version="1.0" encoding="utf-8"?>
<!-- Generator: Adobe Illustrator 22.0.0, SVG Export Plug-In . SVG Version: 6.00 Build 0)  -->
<svg version="1.1" id="Layer_1" xmlns="http://www.w3.org/2000/svg" xmlns:xlink="http://www.w3.org/1999/xlink" x="0px" y="0px"
	 viewBox="0 0 512 512" style="enable-background:new 0 0 512 512;" xml:space="preserve">
<style type="text/css">
	.st0{fill:#CCCCCC;}
</style>
<g>
	<g>
		<g>
			<path class="st0" d="M444.9,109.8L338.2,3.1c-2-2-4.7-3.1-7.5-3.1h-224C83.1,0,64,19.1,64,42.7v426.7c0,23.5,19.1,42.7,42.7,42.7
				h298.7c23.5,0,42.7-19.1,42.7-42.7v-352C448,114.5,446.9,111.8,444.9,109.8z M341.3,36.4l70.2,70.2h-48.9
				c-11.8,0-21.3-9.6-21.3-21.3V36.4z M426.7,469.3c0,11.8-9.6,21.3-21.3,21.3H106.7c-11.8,0-21.3-9.6-21.3-21.3V42.7
				c0-11.8,9.6-21.3,21.3-21.3H320v64c0,23.5,19.1,42.7,42.7,42.7h64V469.3z"/>
			<path class="st0" d="M373.3,298.7H224c-5.9,0-10.7,4.8-10.7,10.7S218.1,320,224,320h149.3c5.9,0,10.7-4.8,10.7-10.7
				S379.2,298.7,373.3,298.7z"/>
			<path class="st0" d="M138.7,128h128c5.9,0,10.7-4.8,10.7-10.7s-4.8-10.7-10.7-10.7h-128c-5.9,0-10.7,4.8-10.7,10.7
				C128,123.2,132.8,128,138.7,128z"/>
			<path class="st0" d="M373.3,234.7H138.7c-5.9,0-10.7,4.8-10.7,10.7c0,5.9,4.8,10.7,10.7,10.7h234.7c5.9,0,10.7-4.8,10.7-10.7
				C384,239.4,379.2,234.7,373.3,234.7z"/>
			<path class="st0" d="M128,181.3c0,5.9,4.8,10.7,10.7,10.7h234.7c5.9,0,10.7-4.8,10.7-10.7s-4.8-10.7-10.7-10.7H138.7
				C132.8,170.7,128,175.4,128,181.3z"/>
			<path class="st0" d="M280.5,387.1c-15.7,15.4-35.5,32.8-43.3,38.1c-1.9-4.2-4-11.2-5.2-15.5c-4.3-14.4-7.7-25.7-18.7-25.7
				c-9.4,0-13.6,8.6-19.9,21.5c-3.1,6.3-9.6,19.5-12,21.2c-2.3-0.2-6.3-2.9-10.6-7c11.8-15.2,21.2-32.8,21.2-46.3
				c0-23.3-19.6-32-32-32c-12.6,0-32,18.3-32,42.7c0,10.8,6,24.1,14.5,35.8c-3.4,3.4-6.8,6.4-10.2,9c-4.7,3.5-5.7,10.2-2.1,14.9
				c2.1,2.8,5.3,4.3,8.5,4.3c2.2,0,4.5-0.7,6.4-2.1c3.7-2.8,7.6-6.2,11.6-10.2c8.4,7.4,17.2,12.3,24.6,12.3
				c14.4,0,23-16.4,30.4-31.5c4.9,16.3,9.7,31.5,22.9,31.5c3.6,0,14.4,0,60.8-45.7c4.2-4.1,4.2-10.9,0.1-15.1
				C291.5,383,284.7,382.9,280.5,387.1z M156.8,402.9c-4.3-6.6-7.4-13.5-7.4-18.9c0-13,9.5-20.6,10.7-21.3c1.8,0,10.7,0.5,10.7,10.7
				C170.7,380.1,164.9,391.6,156.8,402.9z"/>
		</g>
	</g>
</g>
</svg>
