<?xml version="1.0" encoding="utf-8"?>
<!-- Generator: Adobe Illustrator 22.0.0, SVG Export Plug-In . SVG Version: 6.00 Build 0)  -->
<svg version="1.1" id="Capa_1" xmlns="http://www.w3.org/2000/svg" xmlns:xlink="http://www.w3.org/1999/xlink" x="0px" y="0px"
	 viewBox="0 0 512 512" style="enable-background:new 0 0 512 512;" xml:space="preserve">
<style type="text/css">
	.st0{fill:#CCCCCC;}
</style>
<g>
	<path class="st0" d="M502.9,96.8c-6.6-7.8-15.9-12.6-26.2-13.5L116.2,53.2c-10.2-0.9-20.2,2.3-28,9c-7.8,6.6-12.6,15.8-13.5,26
		l-7.3,68.1h-29C17.3,156.3,0,173.5,0,194.7v225.7c0,21.2,17.3,38.5,38.5,38.5h361.8c21.2,0,38.5-17.3,38.5-38.5v-36.6l12.8,1.1
		c1.1,0.1,2.2,0.1,3.2,0.1c19.8,0,36.6-15.2,38.3-35.3l18.8-224.9C512.7,114.6,509.5,104.7,502.9,96.8L502.9,96.8z M38.5,176.3
		h361.8c10.2,0,18.5,8.3,18.5,18.5v20.6H20v-20.6C20,184.6,28.3,176.3,38.5,176.3L38.5,176.3z M20,235.3h398.7v41.5H20L20,235.3z
		 M400.3,438.9H38.5c-10.2,0-18.5-8.3-18.5-18.5V296.8h398.7v123.6C418.7,430.6,410.4,438.9,400.3,438.9L400.3,438.9z M491.9,123.2
		l-18.8,224.9c-0.8,10.1-9.8,17.7-19.9,16.9l-14.5-1.2v-169c0-21.2-17.3-38.5-38.5-38.5H87.5l7-66c0-0.1,0-0.2,0-0.2
		c0.8-10.1,9.8-17.7,19.9-16.9l360.6,30.1c4.9,0.4,9.4,2.7,12.6,6.5S492.3,118.3,491.9,123.2z"/>
	<path class="st0" d="M376.9,326.5h-96.2c-5.5,0-10,4.5-10,10v62.8c0,5.5,4.5,10,10,10h96.2c5.5,0,10-4.5,10-10v-62.8
		C386.9,331,382.4,326.5,376.9,326.5z M366.9,389.3h-76.2v-42.8h76.2V389.3z"/>
</g>
</svg>
