<?xml version="1.0" encoding="utf-8"?>
<!-- Generator: Adobe Illustrator 22.0.0, SVG Export Plug-In . SVG Version: 6.00 Build 0)  -->
<svg version="1.1" id="Capa_1" xmlns="http://www.w3.org/2000/svg" xmlns:xlink="http://www.w3.org/1999/xlink" x="0px" y="0px"
	 viewBox="0 0 512 512" style="enable-background:new 0 0 512 512;" xml:space="preserve">
<style type="text/css">
	.st0{fill:#CCCCCC;}
</style>
<g>
	<path class="st0" d="M271,136C271,61,210.4,0,136,0C61.4,0,0,61.4,0,136c0,69.4,53,126.7,121,134.2V361H76c-8.3,0-15,6.7-15,15
		s6.7,15,15,15h45v45c0,8.3,6.7,15,15,15s15-6.7,15-15v-45h45c8.3,0,15-6.7,15-15s-6.7-15-15-15h-45v-90.8
		C218.4,262.7,271,205.4,271,136L271,136z M30,136C30,77.6,77.6,30,136,30c57.9,0,105,47.6,105,106c0,57.9-47.1,105-105,105
		C77.6,241,30,193.9,30,136z"/>
	<path class="st0" d="M391,241.8V112.2l34.4,34.4c5.9,5.9,15.4,5.9,21.2,0c5.9-5.9,5.9-15.4,0-21.2l-60-60c-5.9-5.9-15.4-5.9-21.2,0
		l-60,60c-5.9,5.9-5.9,15.4,0,21.2c5.9,5.9,15.4,5.9,21.2,0l34.4-34.4v129.6c-67.4,7.5-120,64.8-120,134.2c0,75,60.6,136,135,136
		c74.6,0,136-61.4,136-136C512,306.6,459,249.3,391,241.8z M376,482c-57.9,0-105-47.6-105-106c0-57.9,47.1-105,105-105
		c58.4,0,106,47.1,106,105C482,434.4,434.4,482,376,482z"/>
</g>
</svg>
